<svg width="44" height="44" viewBox="0 0 44 44" fill="none" xmlns="http://www.w3.org/2000/svg">
<rect x="0.5" y="0.5" width="43" height="43" fill="white"/>
<rect x="0.5" y="0.5" width="43" height="43" stroke="#E9EAF0"/>
<path d="M25.7493 12C24.6831 12.0737 23.4368 12.7562 22.7106 13.645C22.0481 14.4512 21.5031 15.6487 21.7156 16.8125C22.8806 16.8487 24.0843 16.15 24.7818 15.2462C25.4343 14.405 25.9281 13.215 25.7493 12Z" fill="black"/>
<path d="M29.9624 18.7084C28.9387 17.4247 27.5 16.6797 26.1412 16.6797C24.3475 16.6797 23.5887 17.5384 22.3425 17.5384C21.0575 17.5384 20.0813 16.6822 18.53 16.6822C17.0063 16.6822 15.3838 17.6134 14.355 19.2059C12.9088 21.4484 13.1563 25.6646 15.5 29.2559C16.3388 30.5409 17.4588 31.9859 18.9238 31.9984C20.2275 32.0108 20.595 31.1621 22.3612 31.1534C24.1275 31.1434 24.4625 32.0096 25.7637 31.9959C27.23 31.9846 28.4112 30.3834 29.2499 29.0984C29.8512 28.1771 30.0749 27.7134 30.5412 26.6734C27.15 25.3821 26.6062 20.5597 29.9624 18.7084Z" fill="black"/>
</svg>
