<svg width="44" height="44" viewBox="0 0 44 44" fill="none" xmlns="http://www.w3.org/2000/svg">
<rect x="0.5" y="0.5" width="43" height="43" fill="white"/>
<rect x="0.5" y="0.5" width="43" height="43" stroke="#E9EAF0"/>
<g clip-path="url(#clip0_6527_9638)">
<path d="M16.4324 24.0836L15.7362 26.6825L13.1918 26.7363C12.4313 25.3259 12 23.7122 12 21.9973C12 20.3391 12.4033 18.7754 13.1181 17.3984H13.1187L15.384 17.8137L16.3763 20.0655C16.1686 20.671 16.0554 21.321 16.0554 21.9973C16.0555 22.7314 16.1885 23.4347 16.4324 24.0836Z" fill="#FBBB00"/>
<path d="M31.8252 20.1328C31.94 20.7377 31.9999 21.3625 31.9999 22.0009C31.9999 22.7169 31.9246 23.4152 31.7812 24.0889C31.2944 26.3812 30.0224 28.3828 28.2604 29.7993L28.2598 29.7987L25.4065 29.6532L25.0027 27.1323C26.1719 26.4466 27.0857 25.3735 27.567 24.0889H22.2197V20.1328H27.645H31.8252Z" fill="#518EF8"/>
<path d="M28.2595 29.7975L28.2601 29.798C26.5464 31.1755 24.3694 31.9996 21.9996 31.9996C18.1914 31.9996 14.8804 29.8711 13.1914 26.7387L16.4321 24.0859C17.2766 26.3398 19.4507 27.9442 21.9996 27.9442C23.0952 27.9442 24.1216 27.648 25.0024 27.131L28.2595 29.7975Z" fill="#28B446"/>
<path d="M28.383 14.3022L25.1434 16.9544C24.2319 16.3846 23.1544 16.0555 22 16.0555C19.3934 16.0555 17.1786 17.7335 16.3764 20.0681L13.1187 17.4011H13.1182C14.7825 14.1923 18.1352 12 22 12C24.4264 12 26.6511 12.8643 28.383 14.3022Z" fill="#F14336"/>
</g>
<defs>
<clipPath id="clip0_6527_9638">
<rect width="20" height="20" fill="white" transform="translate(12 12)"/>
</clipPath>
</defs>
</svg>
